<svg data-v-423bf9ae="" xmlns="http://www.w3.org/2000/svg" viewBox="0 0 400 90" class="iconLeft"><!----><!----><!----><g data-v-423bf9ae="" id="59bd9433-9f29-40c1-b7b9-d8c1f0436486" fill="black" transform="matrix(5.357142948374458,0,0,5.357142948374458,107.7499988448557,6.000000681195935)"><path d="M3.32 7.70C3.32 6.83 3.58 6.15 4.11 5.66C4.64 5.17 5.30 4.93 6.09 4.93C6.76 4.93 7.40 5.07 8.00 5.37C8.60 5.66 9.06 6.03 9.38 6.48L9.38 3.32C8.61 2.79 7.52 2.52 6.09 2.52C4.38 2.52 3.01 2.99 1.97 3.93C0.94 4.88 0.42 6.13 0.42 7.70C0.42 9.27 0.94 10.52 1.97 11.47C3.01 12.41 4.38 12.88 6.09 12.88C7.52 12.88 8.61 12.61 9.38 12.08L9.38 8.92C9.06 9.37 8.60 9.74 8.00 10.03C7.40 10.32 6.76 10.47 6.09 10.47C5.30 10.47 4.64 10.23 4.11 9.74C3.58 9.25 3.32 8.57 3.32 7.70ZM13.65 8.68C13.65 8.06 13.92 7.76 14.45 7.76C14.71 7.76 14.89 7.83 14.98 7.98C15.07 8.13 15.12 8.36 15.12 8.68L15.12 12.60L17.85 12.60L17.85 8.26C17.85 7.51 17.69 6.95 17.37 6.57C17.05 6.19 16.47 6.01 15.64 6.01C14.71 6.01 14.05 6.38 13.65 7.13L13.65 1.68L10.92 1.68L10.92 12.60L13.65 12.60ZM18.97 9.38C18.97 10.45 19.35 11.29 20.11 11.90C20.87 12.51 21.84 12.81 23.00 12.81C24.17 12.81 25.13 12.51 25.89 11.90C26.65 11.29 27.03 10.45 27.03 9.38C27.03 8.31 26.65 7.47 25.89 6.86C25.13 6.25 24.17 5.95 23.00 5.95C21.84 5.95 20.87 6.25 20.11 6.86C19.35 7.47 18.97 8.31 18.97 9.38ZM21.78 9.38C21.78 8.97 21.89 8.63 22.09 8.37C22.30 8.11 22.60 7.98 23.00 7.98C23.40 7.98 23.71 8.11 23.91 8.37C24.12 8.63 24.22 8.97 24.22 9.38C24.22 9.79 24.12 10.13 23.91 10.39C23.71 10.65 23.40 10.78 23.00 10.78C22.60 10.78 22.30 10.65 22.09 10.39C21.89 10.13 21.78 9.79 21.78 9.38ZM30.77 7.70C30.77 6.83 31.04 6.15 31.56 5.66C32.09 5.17 32.75 4.93 33.54 4.93C34.22 4.93 34.85 5.07 35.45 5.37C36.06 5.66 36.52 6.03 36.83 6.48L36.83 3.32C36.07 2.79 34.97 2.52 33.54 2.52C31.84 2.52 30.46 2.99 29.43 3.93C28.39 4.88 27.87 6.13 27.87 7.70C27.87 9.27 28.39 10.52 29.43 11.47C30.46 12.41 31.84 12.88 33.54 12.88C34.97 12.88 36.07 12.61 36.83 12.08L36.83 8.92C36.52 9.37 36.06 9.74 35.45 10.03C34.85 10.32 34.22 10.47 33.54 10.47C32.75 10.47 32.09 10.23 31.56 9.74C31.04 9.25 30.77 8.57 30.77 7.70ZM41.10 8.68C41.10 8.06 41.37 7.76 41.90 7.76C42.16 7.76 42.34 7.83 42.43 7.98C42.53 8.13 42.57 8.36 42.57 8.68L42.57 12.60L45.30 12.60L45.30 8.26C45.30 7.51 45.14 6.95 44.82 6.57C44.50 6.19 43.92 6.01 43.09 6.01C42.17 6.01 41.51 6.38 41.10 7.13L41.10 1.68L38.37 1.68L38.37 12.60L41.10 12.60ZM46.42 9.38C46.42 10.45 46.80 11.29 47.56 11.90C48.33 12.51 49.29 12.81 50.46 12.81C51.62 12.81 52.59 12.51 53.35 11.90C54.11 11.29 54.49 10.45 54.49 9.38C54.49 8.31 54.11 7.47 53.35 6.86C52.59 6.25 51.62 5.95 50.46 5.95C49.29 5.95 48.33 6.25 47.56 6.86C46.80 7.47 46.42 8.31 46.42 9.38ZM49.24 9.38C49.24 8.97 49.34 8.63 49.55 8.37C49.75 8.11 50.05 7.98 50.46 7.98C50.86 7.98 51.16 8.11 51.37 8.37C51.57 8.63 51.67 8.97 51.67 9.38C51.67 9.79 51.57 10.13 51.37 10.39C51.16 10.65 50.86 10.78 50.46 10.78C50.05 10.78 49.75 10.65 49.55 10.39C49.34 10.13 49.24 9.79 49.24 9.38Z"></path></g><!----><g data-v-423bf9ae="" id="531842ef-0b2e-4a85-84e2-2dd89be7cf52" transform="matrix(2.8125,0,0,2.8125,0,0)" stroke="none" fill="black"><path d="M16 32c8.837 0 16-7.163 16-16S24.837 0 16 0 0 7.163 0 16s7.163 16 16 16zM14.817 6.421h2v8.886h8.887v2H14.817V6.421zm-5.959.437h2v14.283h14.283v2H8.858V6.858z"></path></g><!----></svg>